Playfair Display-Regular.ufo
<glyph name="s" format="1">
  <advance width="447"/>
  <unicode hex="0073"/>
  <outline>
    <contour>
      <point x="208" y="529" type="curve" smooth="yes"/>
      <point x="129" y="529"/>
      <point x="60" y="489"/>
      <point x="60" y="400" type="curve" smooth="yes"/>
      <point x="60" y="317"/>
      <point x="125" y="278"/>
      <point x="198" y="232" type="curve" smooth="yes"/>
      <point x="263" y="191"/>
      <point x="311" y="159"/>
      <point x="311" y="101" type="curve" smooth="yes"/>
      <point x="311" y="30"/>
      <point x="262" y="6"/>
      <point x="222" y="6" type="curve" smooth="yes"/>
      <point x="122" y="6"/>
      <point x="96" y="81"/>
      <point x="83" y="193" type="curve"/>
      <point x="60" y="193" type="line"/>
      <point x="60" y="92"/>
      <point x="59" y="36"/>
      <point x="56" y="-7" type="curve"/>
      <point x="79" y="-7" type="line"/>
      <point x="84" y="26"/>
      <point x="96" y="38"/>
      <point x="109" y="27" type="curve" smooth="yes"/>
      <point x="122" y="16"/>
      <point x="136" y="7"/>
      <point x="150" y="0" type="curve" smooth="yes"/>
      <point x="174" y="-10"/>
      <point x="200" y="-14"/>
      <point x="229" y="-14" type="curve" smooth="yes"/>
      <point x="320" y="-14"/>
      <point x="400" y="34"/>
      <point x="400" y="126" type="curve" smooth="yes"/>
      <point x="400" y="208"/>
      <point x="339" y="252"/>
      <point x="263" y="301" type="curve" smooth="yes"/>
      <point x="195" y="345"/>
      <point x="135" y="373"/>
      <point x="135" y="433" type="curve" smooth="yes"/>
      <point x="135" y="483"/>
      <point x="170" y="510"/>
      <point x="217" y="510" type="curve" smooth="yes"/>
      <point x="307" y="510"/>
      <point x="341" y="432"/>
      <point x="353" y="358" type="curve"/>
      <point x="376" y="358" type="line"/>
      <point x="376" y="444"/>
      <point x="377" y="491"/>
      <point x="380" y="528" type="curve"/>
      <point x="357" y="528" type="line"/>
      <point x="352" y="485"/>
      <point x="339" y="474"/>
      <point x="317" y="492" type="curve" smooth="yes"/>
      <point x="299" y="507"/>
      <point x="261" y="529"/>
    </contour>
    <contour>
      <point x="229" y="0" type="move" name="bottom"/>
    </contour>
    <contour>
      <point x="229" y="514" type="move" name="top"/>
    </contour>
  </outline>
</glyph>
<glyph name="ij" format="1">
  <advance width="562"/>
  <unicode hex="0133"/>
  <outline>
    <contour>
      <point x="269" y="-188" type="line"/>
      <point x="327" y="-188"/>
      <point x="377" y="-163"/>
      <point x="411" y="-127" type="curve" smooth="yes"/>
      <point x="463" y="-72"/>
      <point x="483" y="15"/>
      <point x="483" y="115" type="curve" smooth="yes"/>
      <point x="483" y="526" type="line"/>
      <point x="454" y="516"/>
      <point x="418" y="512"/>
      <point x="379" y="512" type="curve" smooth="yes"/>
      <point x="359" y="512"/>
      <point x="338" y="513"/>
      <point x="317" y="515" type="curve"/>
      <point x="317" y="494" type="line"/>
      <point x="375" y="494"/>
      <point x="393" y="466"/>
      <point x="393" y="406" type="curve" smooth="yes"/>
      <point x="393" y="199" type="line" smooth="yes"/>
      <point x="393" y="97"/>
      <point x="341" y="18"/>
      <point x="258" y="18" type="curve" smooth="yes"/>
      <point x="186" y="18"/>
      <point x="182" y="71"/>
      <point x="182" y="133" type="curve" smooth="yes"/>
      <point x="182" y="526" type="line"/>
      <point x="153" y="516"/>
      <point x="117" y="512"/>
      <point x="78" y="512" type="curve" smooth="yes"/>
      <point x="58" y="512"/>
      <point x="37" y="513"/>
      <point x="16" y="515" type="curve"/>
      <point x="16" y="494" type="line"/>
      <point x="74" y="494"/>
      <point x="92" y="466"/>
      <point x="92" y="406" type="curve" smooth="yes"/>
      <point x="92" y="155" type="line" smooth="yes"/>
      <point x="92" y="92"/>
      <point x="100" y="51"/>
      <point x="125" y="24" type="curve" smooth="yes"/>
      <point x="148" y="0"/>
      <point x="182" y="-14"/>
      <point x="229" y="-14" type="curve" smooth="yes"/>
      <point x="312" y="-14"/>
      <point x="369" y="35"/>
      <point x="393" y="113" type="curve"/>
      <point x="393" y="19" type="line" smooth="yes"/>
      <point x="393" y="-98"/>
      <point x="352" y="-169"/>
      <point x="269" y="-173" type="curve"/>
    </contour>
    <component base="uni0307" xOffset="24"/>
    <component base="uni0307" xOffset="328"/>
  </outline>
</glyph>
<glyph name="ohorn" format="1">
  <advance width="548"/>
  <unicode hex="01A1"/>
  <outline>
    <contour>
      <point x="377" y="479" type="line"/>
      <point x="422" y="484"/>
      <point x="457" y="493"/>
      <point x="484" y="510" type="curve" smooth="yes"/>
      <point x="510" y="526"/>
      <point x="531" y="551"/>
      <point x="531" y="582" type="curve" smooth="yes"/>
      <point x="531" y="608"/>
      <point x="517" y="630"/>
      <point x="486" y="630" type="curve" smooth="yes"/>
      <point x="452" y="630"/>
      <point x="437" y="602"/>
      <point x="437" y="575" type="curve" smooth="yes"/>
      <point x="437" y="549"/>
      <point x="452" y="528"/>
      <point x="466" y="515" type="curve"/>
      <point x="467" y="522" type="line"/>
      <point x="441" y="508"/>
      <point x="412" y="501"/>
      <point x="373" y="498" type="curve"/>
    </contour>
    <component base="o"/>
  </outline>
</glyph>
<glyph name="Uhorn" format="1">
  <advance width="682"/>
  <unicode hex="01AF"/>
  <outline>
    <contour>
      <point x="350" y="-14" type="curve" smooth="yes"/>
      <point x="432" y="-14"/>
      <point x="500" y="23"/>
      <point x="533" y="79" type="curve" smooth="yes"/>
      <point x="563" y="130"/>
      <point x="574" y="198"/>
      <point x="574" y="291" type="curve" smooth="yes"/>
      <point x="574" y="696" type="line"/>
      <point x="564" y="686" type="line"/>
      <point x="595" y="687"/>
      <point x="627" y="696"/>
      <point x="667" y="720" type="curve" smooth="yes"/>
      <point x="704" y="742"/>
      <point x="732" y="773"/>
      <point x="732" y="808" type="curve" smooth="yes"/>
      <point x="732" y="838"/>
      <point x="713" y="864"/>
      <point x="676" y="864" type="curve" smooth="yes"/>
      <point x="637" y="864"/>
      <point x="618" y="835"/>
      <point x="618" y="804" type="curve" smooth="yes"/>
      <point x="618" y="774"/>
      <point x="639" y="749"/>
      <point x="659" y="734" type="curve"/>
      <point x="660" y="739" type="line"/>
      <point x="617" y="705"/>
      <point x="573" y="705"/>
      <point x="537" y="705" type="curve" smooth="yes"/>
      <point x="511" y="705"/>
      <point x="482" y="706"/>
      <point x="463" y="708" type="curve"/>
      <point x="458" y="688" type="line"/>
      <point x="490" y="685"/>
      <point x="523" y="684"/>
      <point x="555" y="686" type="curve"/>
      <point x="551" y="697" type="line"/>
      <point x="551" y="280" type="line" smooth="yes"/>
      <point x="551" y="131"/>
      <point x="510" y="21"/>
      <point x="359" y="21" type="curve" smooth="yes"/>
      <point x="217" y="21"/>
      <point x="201" y="134"/>
      <point x="201" y="271" type="curve" smooth="yes"/>
      <point x="201" y="602" type="line" smooth="yes"/>
      <point x="201" y="675"/>
      <point x="214" y="685"/>
      <point x="282" y="688" type="curve"/>
      <point x="282" y="708" type="line"/>
      <point x="251" y="706"/>
      <point x="201" y="705"/>
      <point x="155" y="705" type="curve" smooth="yes"/>
      <point x="103" y="705"/>
      <point x="55" y="706"/>
      <point x="27" y="708" type="curve"/>
      <point x="27" y="688" type="line"/>
      <point x="95" y="685"/>
      <point x="108" y="675"/>
      <point x="108" y="602" type="curve" smooth="yes"/>
      <point x="108" y="288" type="line" smooth="yes"/>
      <point x="108" y="152"/>
      <point x="123" y="95"/>
      <point x="182" y="40" type="curve" smooth="yes"/>
      <point x="226" y="-1"/>
      <point x="286" y="-14"/>
    </contour>
    <contour>
      <point x="360" y="0" type="move" name="bottom"/>
    </contour>
    <contour>
      <point x="440" y="0" type="move" name="ogonek"/>
    </contour>
    <contour>
      <point x="352" y="708" type="move" name="top"/>
    </contour>
  </outline>
</glyph>
<glyph name="uni0307" format="1">
  <advance width="198"/>
  <unicode hex="0307"/>
  <outline>
    <contour>
      <point x="99" y="765" type="curve" smooth="yes"/>
      <point x="64" y="765"/>
      <point x="35" y="736"/>
      <point x="35" y="701" type="curve" smooth="yes"/>
      <point x="35" y="666"/>
      <point x="64" y="637"/>
      <point x="99" y="637" type="curve" smooth="yes"/>
      <point x="134" y="637"/>
      <point x="163" y="666"/>
      <point x="163" y="701" type="curve" smooth="yes"/>
      <point x="163" y="736"/>
      <point x="134" y="765"/>
    </contour>
    <contour>
      <point x="99" y="514" type="move" name="_top"/>
    </contour>
    <contour>
      <point x="99" y="758" type="move" name="top"/>
    </contour>
  </outline>
</glyph>
<glyph name="hookabovecomb" format="1">
  <advance width="303"/>
  <unicode hex="0309"/>
  <outline>
    <contour>
      <point x="123" y="592" type="line"/>
      <point x="143" y="592" type="line"/>
      <point x="143" y="638" type="line"/>
      <point x="212" y="654"/>
      <point x="268" y="688"/>
      <point x="268" y="740" type="curve" smooth="yes"/>
      <point x="268" y="790"/>
      <point x="218" y="820"/>
      <point x="156" y="820" type="curve" smooth="yes"/>
      <point x="118" y="820"/>
      <point x="89" y="809"/>
      <point x="74" y="800" type="curve" smooth="yes"/>
      <point x="52" y="787"/>
      <point x="35" y="766"/>
      <point x="35" y="741" type="curve" smooth="yes"/>
      <point x="35" y="716"/>
      <point x="53" y="699"/>
      <point x="78" y="699" type="curve" smooth="yes"/>
      <point x="103" y="699"/>
      <point x="123" y="715"/>
      <point x="123" y="743" type="curve" smooth="yes"/>
      <point x="123" y="766"/>
      <point x="110" y="780"/>
      <point x="91" y="784" type="curve"/>
      <point x="102" y="797"/>
      <point x="124" y="800"/>
      <point x="137" y="800" type="curve" smooth="yes"/>
      <point x="177" y="800"/>
      <point x="199" y="773"/>
      <point x="199" y="735" type="curve" smooth="yes"/>
      <point x="199" y="696"/>
      <point x="177" y="668"/>
      <point x="123" y="647" type="curve"/>
    </contour>
    <contour>
      <point x="123" y="514" type="move" name="_right"/>
    </contour>
    <contour>
      <point x="133" y="514" type="move" name="_top"/>
    </contour>
    <contour>
      <point x="152" y="820" type="move" name="top"/>
    </contour>
  </outline>
</glyph>
<glyph name="uni0335" format="1">
  <advance width="394"/>
  <unicode hex="0335"/>
  <outline>
    <contour>
      <point x="374" y="628" type="line"/>
      <point x="20" y="628" type="line"/>
      <point x="20" y="608" type="line"/>
      <point x="374" y="608" type="line"/>
    </contour>
    <contour>
      <point x="197" y="618" type="move" name="_center"/>
    </contour>
  </outline>
</glyph>
<glyph name="uni0337" format="1">
  <advance width="547"/>
  <unicode hex="0337"/>
  <outline>
    <contour>
      <point x="393" y="466" type="line"/>
      <point x="152" y="84" type="line"/>
      <point x="168" y="63" type="line"/>
      <point x="408" y="446" type="line"/>
    </contour>
    <contour>
      <point x="142" y="84" type="line"/>
      <point x="44" y="-59" type="line"/>
      <point x="65" y="-73" type="line"/>
      <point x="158" y="63" type="line"/>
    </contour>
    <contour>
      <point x="486" y="587" type="line"/>
      <point x="403" y="466" type="line"/>
      <point x="418" y="446" type="line"/>
      <point x="505" y="574" type="line"/>
    </contour>
    <contour>
      <point x="275" y="257" type="move" name="_center"/>
    </contour>
  </outline>
</glyph>
<glyph name="uni0338" format="1">
  <advance width="741"/>
  <unicode hex="0338"/>
  <outline>
    <contour>
      <point x="539" y="632" type="line"/>
      <point x="186" y="95" type="line"/>
      <point x="204" y="77" type="line"/>
      <point x="554" y="612" type="line"/>
    </contour>
    <contour>
      <point x="178" y="95" type="line"/>
      <point x="73" y="-59" type="line"/>
      <point x="94" y="-73" type="line"/>
      <point x="196" y="77" type="line"/>
    </contour>
    <contour>
      <point x="643" y="773" type="line"/>
      <point x="546" y="632" type="line"/>
      <point x="561" y="612" type="line"/>
      <point x="662" y="760" type="line"/>
    </contour>
    <contour>
      <point x="368" y="350" type="move" name="_center"/>
    </contour>
  </outline>
</glyph>
<glyph name="uni046A" format="1">
  <advance width="983"/>
  <unicode hex="046A"/>
  <outline>
    <contour>
      <point x="479" y="299" type="line"/>
      <point x="496" y="299" type="line"/>
      <point x="698" y="599" type="line" smooth="yes"/>
      <point x="735" y="654"/>
      <point x="762" y="682"/>
      <point x="808" y="688" type="curve"/>
      <point x="808" y="708" type="line"/>
      <point x="687" y="706"/>
      <point x="594" y="705"/>
      <point x="491" y="705" type="curve" smooth="yes"/>
      <point x="395" y="705"/>
      <point x="287" y="706"/>
      <point x="157" y="708" type="curve"/>
      <point x="157" y="687" type="line"/>
      <point x="196" y="687"/>
      <point x="213" y="677"/>
      <point x="245" y="631" type="curve" smooth="yes"/>
    </contour>
    <contour>
      <point x="108" y="-14" type="curve" smooth="yes"/>
      <point x="155" y="-14"/>
      <point x="195" y="5"/>
      <point x="215" y="94" type="curve" smooth="yes"/>
      <point x="243" y="218" type="line" smooth="yes"/>
      <point x="262" y="301"/>
      <point x="277" y="357"/>
      <point x="379" y="357" type="curve" smooth="yes"/>
      <point x="464" y="357" type="line"/>
      <point x="464" y="376" type="line"/>
      <point x="375" y="376" type="line" smooth="yes"/>
      <point x="269" y="376"/>
      <point x="177" y="353"/>
      <point x="149" y="231" type="curve" smooth="yes"/>
      <point x="120" y="105" type="line" smooth="yes"/>
      <point x="106" y="44"/>
      <point x="98" y="22"/>
      <point x="69" y="23" type="curve" smooth="yes"/>
      <point x="46" y="24"/>
      <point x="34" y="38"/>
      <point x="16" y="61" type="curve"/>
      <point x="1" y="50" type="line"/>
      <point x="27" y="12"/>
      <point x="52" y="-14"/>
    </contour>
    <contour>
      <point x="364" y="0" type="line"/>
      <point x="395" y="2"/>
      <point x="445" y="3"/>
      <point x="491" y="3" type="curve" smooth="yes"/>
      <point x="543" y="3"/>
      <point x="591" y="2"/>
      <point x="619" y="0" type="curve"/>
      <point x="619" y="20" type="line"/>
      <point x="551" y="23"/>
      <point x="538" y="33"/>
      <point x="538" y="106" type="curve" smooth="yes"/>
      <point x="538" y="372" type="line"/>
      <point x="445" y="372" type="line"/>
      <point x="445" y="106" type="line" smooth="yes"/>
      <point x="445" y="33"/>
      <point x="432" y="23"/>
      <point x="364" y="20" type="curve"/>
    </contour>
    <contour>
      <point x="875" y="-14" type="curve" smooth="yes"/>
      <point x="931" y="-14"/>
      <point x="956" y="12"/>
      <point x="982" y="50" type="curve"/>
      <point x="967" y="61" type="line"/>
      <point x="949" y="38"/>
      <point x="937" y="24"/>
      <point x="914" y="23" type="curve" smooth="yes"/>
      <point x="885" y="22"/>
      <point x="877" y="44"/>
      <point x="863" y="105" type="curve" smooth="yes"/>
      <point x="834" y="231" type="line" smooth="yes"/>
      <point x="806" y="353"/>
      <point x="714" y="376"/>
      <point x="608" y="376" type="curve" smooth="yes"/>
      <point x="519" y="376" type="line"/>
      <point x="519" y="357" type="line"/>
      <point x="604" y="357" type="line" smooth="yes"/>
      <point x="706" y="357"/>
      <point x="721" y="301"/>
      <point x="740" y="218" type="curve" smooth="yes"/>
      <point x="768" y="94" type="line" smooth="yes"/>
      <point x="788" y="5"/>
      <point x="828" y="-14"/>
    </contour>
    <contour>
      <point x="531" y="364" type="line"/>
      <point x="355" y="614" type="line" smooth="yes"/>
      <point x="313" y="674"/>
      <point x="379" y="687"/>
      <point x="502" y="687" type="curve" smooth="yes"/>
      <point x="672" y="687"/>
      <point x="707" y="652"/>
      <point x="637" y="549" type="curve" smooth="yes"/>
      <point x="515" y="368" type="line"/>
    </contour>
  </outline>
</glyph>
<glyph name="uni046B" format="1">
  <advance width="842"/>
  <unicode hex="046B"/>
  <outline>
    <contour>
      <point x="405" y="205" type="line"/>
      <point x="422" y="205" type="line"/>
      <point x="596" y="425" type="line" smooth="yes"/>
      <point x="629" y="467"/>
      <point x="636" y="492"/>
      <point x="681" y="495" type="curve"/>
      <point x="681" y="515" type="line"/>
      <point x="573" y="512"/>
      <point x="511" y="510"/>
      <point x="423" y="510" type="curve" smooth="yes"/>
      <point x="334" y="510"/>
      <point x="252" y="512"/>
      <point x="123" y="515" type="curve"/>
      <point x="123" y="494" type="line"/>
      <point x="161" y="494"/>
      <point x="171" y="486"/>
      <point x="211" y="438" type="curve" smooth="yes"/>
    </contour>
    <contour>
      <point x="81" y="-7" type="curve" smooth="yes"/>
      <point x="133" y="-7"/>
      <point x="162" y="14"/>
      <point x="180" y="73" type="curve" smooth="yes"/>
      <point x="187" y="96"/>
      <point x="204" y="169"/>
      <point x="233" y="209" type="curve" smooth="yes"/>
      <point x="263" y="251"/>
      <point x="312" y="259"/>
      <point x="381" y="257" type="curve"/>
      <point x="381" y="274" type="line"/>
      <point x="227" y="275"/>
      <point x="183" y="270"/>
      <point x="144" y="207" type="curve" smooth="yes"/>
      <point x="122" y="171"/>
      <point x="108" y="115"/>
      <point x="91" y="76" type="curve" smooth="yes"/>
      <point x="76" y="42"/>
      <point x="61" y="25"/>
      <point x="20" y="21" type="curve"/>
      <point x="20" y="0" type="line"/>
      <point x="41" y="-4"/>
      <point x="62" y="-7"/>
    </contour>
    <contour>
      <point x="310" y="0" type="line"/>
      <point x="331" y="1"/>
      <point x="379" y="4"/>
      <point x="421" y="4" type="curve" smooth="yes"/>
      <point x="463" y="4"/>
      <point x="511" y="1"/>
      <point x="532" y="0" type="curve"/>
      <point x="532" y="21" type="line"/>
      <point x="484" y="21"/>
      <point x="466" y="37"/>
      <point x="466" y="93" type="curve" smooth="yes"/>
      <point x="466" y="267" type="line"/>
      <point x="417" y="232" type="line"/>
      <point x="376" y="267" type="line"/>
      <point x="376" y="93" type="line" smooth="yes"/>
      <point x="376" y="37"/>
      <point x="358" y="21"/>
      <point x="310" y="21" type="curve"/>
    </contour>
    <contour>
      <point x="761" y="-7" type="curve" smooth="yes"/>
      <point x="780" y="-7"/>
      <point x="801" y="-4"/>
      <point x="822" y="0" type="curve"/>
      <point x="822" y="21" type="line"/>
      <point x="781" y="25"/>
      <point x="766" y="42"/>
      <point x="751" y="76" type="curve" smooth="yes"/>
      <point x="734" y="114"/>
      <point x="719" y="172"/>
      <point x="698" y="207" type="curve" smooth="yes"/>
      <point x="658" y="270"/>
      <point x="615" y="275"/>
      <point x="461" y="274" type="curve"/>
      <point x="461" y="257" type="line"/>
      <point x="535" y="259"/>
      <point x="579" y="250"/>
      <point x="609" y="209" type="curve" smooth="yes"/>
      <point x="637" y="170"/>
      <point x="650" y="113"/>
      <point x="662" y="73" type="curve" smooth="yes"/>
      <point x="679" y="17"/>
      <point x="705" y="-7"/>
    </contour>
    <contour>
      <point x="443" y="260" type="line"/>
      <point x="453" y="260" type="line"/>
      <point x="324" y="416" type="line" smooth="yes"/>
      <point x="271" y="480"/>
      <point x="326" y="490"/>
      <point x="413" y="490" type="curve" smooth="yes"/>
      <point x="565" y="490"/>
      <point x="599" y="462"/>
      <point x="552" y="401" type="curve" smooth="yes"/>
    </contour>
  </outline>
</glyph>
<glyph name="uni0496" format="1">
  <advance width="983"/>
  <unicode hex="0496"/>
  <outline>
    <contour>
      <point x="941" y="708" type="line"/>
      <point x="921" y="706"/>
      <point x="890" y="705"/>
      <point x="856" y="705" type="curve" smooth="yes"/>
      <point x="821" y="705"/>
      <point x="779" y="706"/>
      <point x="741" y="708" type="curve"/>
      <point x="741" y="688" type="line"/>
      <point x="825" y="686"/>
      <point x="818" y="640"/>
      <point x="752" y="556" type="curve" smooth="yes"/>
      <point x="656" y="434" type="line" smooth="yes"/>
      <point x="631" y="402"/>
      <point x="594" y="377"/>
      <point x="538" y="376" type="curve"/>
      <point x="538" y="357" type="line"/>
      <point x="620" y="357" type="line"/>
      <point x="823" y="615" type="line" smooth="yes"/>
      <point x="861" y="663"/>
      <point x="900" y="682"/>
      <point x="941" y="688" type="curve"/>
    </contour>
    <contour>
      <point x="619" y="708" type="line"/>
      <point x="591" y="706"/>
      <point x="543" y="705"/>
      <point x="491" y="705" type="curve" smooth="yes"/>
      <point x="445" y="705"/>
      <point x="395" y="706"/>
      <point x="364" y="708" type="curve"/>
      <point x="364" y="688" type="line"/>
      <point x="432" y="685"/>
      <point x="445" y="675"/>
      <point x="445" y="602" type="curve" smooth="yes"/>
      <point x="445" y="106" type="line" smooth="yes"/>
      <point x="445" y="33"/>
      <point x="432" y="23"/>
      <point x="364" y="20" type="curve"/>
      <point x="364" y="0" type="line"/>
      <point x="395" y="2"/>
      <point x="445" y="3"/>
      <point x="491" y="3" type="curve" smooth="yes"/>
      <point x="543" y="3"/>
      <point x="591" y="2"/>
      <point x="619" y="0" type="curve"/>
      <point x="619" y="20" type="line"/>
      <point x="551" y="23"/>
      <point x="538" y="33"/>
      <point x="538" y="106" type="curve" smooth="yes"/>
      <point x="538" y="602" type="line" smooth="yes"/>
      <point x="538" y="675"/>
      <point x="551" y="685"/>
      <point x="619" y="688" type="curve"/>
    </contour>
    <contour>
      <point x="242" y="708" type="line"/>
      <point x="204" y="706"/>
      <point x="162" y="705"/>
      <point x="127" y="705" type="curve" smooth="yes"/>
      <point x="93" y="705"/>
      <point x="62" y="706"/>
      <point x="42" y="708" type="curve"/>
      <point x="42" y="688" type="line"/>
      <point x="83" y="682"/>
      <point x="122" y="663"/>
      <point x="160" y="615" type="curve" smooth="yes"/>
      <point x="363" y="357" type="line"/>
      <point x="445" y="357" type="line"/>
      <point x="445" y="376" type="line"/>
      <point x="389" y="377"/>
      <point x="352" y="402"/>
      <point x="327" y="434" type="curve" smooth="yes"/>
      <point x="231" y="556" type="line" smooth="yes"/>
      <point x="165" y="640"/>
      <point x="158" y="686"/>
      <point x="242" y="688" type="curve"/>
    </contour>
    <contour>
      <point x="464" y="376" type="line"/>
      <point x="375" y="376" type="line" smooth="yes"/>
      <point x="269" y="376"/>
      <point x="177" y="353"/>
      <point x="149" y="231" type="curve" smooth="yes"/>
      <point x="120" y="105" type="line" smooth="yes"/>
      <point x="106" y="44"/>
      <point x="98" y="22"/>
      <point x="69" y="23" type="curve" smooth="yes"/>
      <point x="46" y="24"/>
      <point x="34" y="38"/>
      <point x="16" y="61" type="curve"/>
      <point x="1" y="50" type="line"/>
      <point x="27" y="12"/>
      <point x="52" y="-14"/>
      <point x="108" y="-14" type="curve" smooth="yes"/>
      <point x="155" y="-14"/>
      <point x="195" y="5"/>
      <point x="215" y="94" type="curve" smooth="yes"/>
      <point x="243" y="218" type="line" smooth="yes"/>
      <point x="262" y="301"/>
      <point x="277" y="357"/>
      <point x="379" y="357" type="curve" smooth="yes"/>
      <point x="464" y="357" type="line"/>
    </contour>
    <contour>
      <point x="931" y="-160" type="curve"/>
      <point x="954" y="-160" type="line"/>
      <point x="952" y="-145"/>
      <point x="951" y="-122"/>
      <point x="951" y="-98" type="curve" smooth="yes"/>
      <point x="951" y="-75"/>
      <point x="953" y="-27"/>
      <point x="958" y="20" type="curve"/>
      <point x="947" y="20" type="line" smooth="yes"/>
      <point x="886" y="20"/>
      <point x="880" y="33"/>
      <point x="863" y="105" type="curve" smooth="yes"/>
      <point x="834" y="231" type="line" smooth="yes"/>
      <point x="806" y="353"/>
      <point x="714" y="376"/>
      <point x="608" y="376" type="curve" smooth="yes"/>
      <point x="519" y="376" type="line"/>
      <point x="519" y="357" type="line"/>
      <point x="604" y="357" type="line" smooth="yes"/>
      <point x="706" y="357"/>
      <point x="720" y="301"/>
      <point x="740" y="218" type="curve" smooth="yes"/>
      <point x="771" y="87" type="line" smooth="yes"/>
      <point x="784" y="34"/>
      <point x="805" y="8"/>
      <point x="856" y="-8" type="curve" smooth="yes"/>
      <point x="914" y="-26"/>
      <point x="922" y="-71"/>
    </contour>
    <contour>
      <point x="492" y="708" type="move" name="top"/>
    </contour>
  </outline>
</glyph>
<glyph name="uni04A3" format="1">
  <advance width="611"/>
  <unicode hex="04A3"/>
  <outline>
    <contour>
      <point x="591" y="-160" type="curve"/>
      <point x="614" y="-160" type="line"/>
      <point x="612" y="-145"/>
      <point x="611" y="-122"/>
      <point x="611" y="-98" type="curve" smooth="yes"/>
      <point x="611" y="-75"/>
      <point x="613" y="-26"/>
      <point x="618" y="21" type="curve"/>
      <point x="587" y="21" type="line" smooth="yes"/>
      <point x="519" y="21"/>
      <point x="506" y="34"/>
      <point x="506" y="106" type="curve"/>
      <point x="457" y="4" type="line"/>
      <point x="563" y="4"/>
      <point x="578" y="-39"/>
    </contour>
    <component base="uni043D"/>
  </outline>
</glyph>
<glyph name="uni04AF" format="1">
  <advance width="489"/>
  <unicode hex="04AF"/>
  <outline>
    <contour>
      <point x="296" y="123" type="line"/>
      <point x="265" y="59" type="line"/>
      <point x="203" y="130" type="line"/>
      <point x="203" y="-75" type="line" smooth="yes"/>
      <point x="203" y="-148"/>
      <point x="190" y="-158"/>
      <point x="122" y="-161" type="curve"/>
      <point x="122" y="-181" type="line"/>
      <point x="150" y="-179"/>
      <point x="198" y="-178"/>
      <point x="250" y="-178" type="curve" smooth="yes"/>
      <point x="296" y="-178"/>
      <point x="346" y="-179"/>
      <point x="377" y="-181" type="curve"/>
      <point x="377" y="-161" type="line"/>
      <point x="309" y="-158"/>
      <point x="296" y="-148"/>
      <point x="296" y="-75" type="curve" smooth="yes"/>
    </contour>
    <component base="v"/>
  </outline>
</glyph>
<glyph name="uni04C9" format="1">
  <advance width="757"/>
  <unicode hex="04C9"/>
  <outline>
    <contour>
      <point x="625" y="-150" type="curve"/>
      <point x="645" y="-160" type="line"/>
      <point x="662" y="-124"/>
      <point x="707" y="-49"/>
      <point x="741" y="0" type="curve"/>
      <point x="741" y="20" type="line"/>
      <point x="709" y="20" type="line" smooth="yes"/>
      <point x="648" y="20"/>
      <point x="634" y="33"/>
      <point x="634" y="106" type="curve"/>
      <point x="565" y="3" type="line"/>
      <point x="636" y="3"/>
      <point x="692" y="-24"/>
    </contour>
    <component base="uni041D"/>
  </outline>
</glyph>
<glyph name="uni04CA" format="1">
  <advance width="611"/>
  <unicode hex="04CA"/>
  <outline>
    <contour>
      <point x="497" y="-150" type="curve"/>
      <point x="517" y="-160" type="line"/>
      <point x="534" y="-124"/>
      <point x="579" y="-48"/>
      <point x="613" y="1" type="curve"/>
      <point x="613" y="21" type="line"/>
      <point x="581" y="21" type="line" smooth="yes"/>
      <point x="520" y="21"/>
      <point x="506" y="33"/>
      <point x="506" y="106" type="curve"/>
      <point x="437" y="4" type="line"/>
      <point x="508" y="4"/>
      <point x="564" y="-24"/>
    </contour>
    <component base="uni043D"/>
  </outline>
</glyph>
<glyph name="uni04E9" format="1">
  <advance width="548"/>
  <unicode hex="04E9"/>
  <outline>
    <contour>
      <point x="454" y="275" type="line"/>
      <point x="97" y="275" type="line"/>
      <point x="97" y="255" type="line"/>
      <point x="454" y="255" type="line"/>
    </contour>
    <component base="o"/>
  </outline>
</glyph>
<glyph name="minute" format="1">
  <advance width="310"/>
  <unicode hex="2032"/>
  <outline>
    <contour>
      <point x="44" y="410" type="line"/>
      <point x="180" y="708" type="line"/>
      <point x="301" y="708" type="line"/>
      <point x="61" y="402" type="line"/>
    </contour>
  </outline>
</glyph>
<glyph name="c_t" format="1">
  <advance width="847"/>
  <outline>
    <contour>
      <point x="678" y="681" type="line"/>
      <point x="653" y="672"/>
      <point x="621" y="668"/>
      <point x="588" y="667" type="curve"/>
      <point x="588" y="514" type="line"/>
      <point x="492" y="514" type="line"/>
      <point x="492" y="494" type="line"/>
      <point x="588" y="494" type="line"/>
      <point x="588" y="159" type="line" smooth="yes"/>
      <point x="588" y="88"/>
      <point x="597" y="48"/>
      <point x="626" y="18" type="curve" smooth="yes"/>
      <point x="648" y="-4"/>
      <point x="675" y="-14"/>
      <point x="722" y="-14" type="curve" smooth="yes"/>
      <point x="803" y="-14"/>
      <point x="841" y="44"/>
      <point x="857" y="122" type="curve"/>
      <point x="837" y="128" type="line"/>
      <point x="813" y="50"/>
      <point x="782" y="22"/>
      <point x="742" y="22" type="curve" smooth="yes"/>
      <point x="704" y="22"/>
      <point x="678" y="45"/>
      <point x="678" y="111" type="curve" smooth="yes"/>
      <point x="678" y="494" type="line"/>
      <point x="836" y="494" type="line"/>
      <point x="836" y="514" type="line"/>
      <point x="678" y="514" type="line"/>
    </contour>
    <contour>
      <point x="281" y="529" type="curve" smooth="yes"/>
      <point x="142" y="529"/>
      <point x="47" y="415"/>
      <point x="47" y="251" type="curve" smooth="yes"/>
      <point x="47" y="86"/>
      <point x="144" y="-14"/>
      <point x="269" y="-14" type="curve" smooth="yes"/>
      <point x="375" y="-14"/>
      <point x="432" y="60"/>
      <point x="452" y="125" type="curve"/>
      <point x="433" y="132" type="line"/>
      <point x="398" y="56"/>
      <point x="340" y="29"/>
      <point x="287" y="29" type="curve" smooth="yes"/>
      <point x="211" y="29"/>
      <point x="144" y="91"/>
      <point x="144" y="263" type="curve" smooth="yes"/>
      <point x="144" y="456"/>
      <point x="221" y="511"/>
      <point x="287" y="511" type="curve" smooth="yes"/>
      <point x="325" y="511"/>
      <point x="364" y="493"/>
      <point x="377" y="469" type="curve"/>
      <point x="352" y="464"/>
      <point x="335" y="446"/>
      <point x="335" y="418" type="curve" smooth="yes"/>
      <point x="335" y="384"/>
      <point x="360" y="364"/>
      <point x="390" y="364" type="curve" smooth="yes"/>
      <point x="420" y="364"/>
      <point x="443" y="384"/>
      <point x="443" y="420" type="curve" smooth="yes"/>
      <point x="443" y="440"/>
      <point x="436" y="458"/>
      <point x="424" y="473" type="curve"/>
      <point x="421" y="458" type="line"/>
      <point x="396" y="509"/>
      <point x="340" y="529"/>
    </contour>
    <contour>
      <point x="474" y="782" type="curve" smooth="yes"/>
      <point x="399" y="782"/>
      <point x="330" y="742"/>
      <point x="330" y="653" type="curve" smooth="yes"/>
      <point x="330" y="565"/>
      <point x="387" y="520"/>
      <point x="425" y="448" type="curve"/>
      <point x="435" y="455" type="line"/>
      <point x="401" y="534"/>
      <point x="353" y="571"/>
      <point x="353" y="654" type="curve" smooth="yes"/>
      <point x="353" y="734"/>
      <point x="410" y="764"/>
      <point x="472" y="764" type="curve" smooth="yes"/>
      <point x="547" y="764"/>
      <point x="588" y="715"/>
      <point x="588" y="631" type="curve"/>
      <point x="605" y="634" type="line"/>
      <point x="605" y="741"/>
      <point x="547" y="782"/>
    </contour>
    <contour>
      <point x="433" y="0" type="move" name="bottom"/>
    </contour>
    <contour>
      <point x="433" y="514" type="move" name="top"/>
    </contour>
  </outline>
</glyph>
<glyph name="hookabovecomb.case" format="1">
  <advance width="313"/>
  <outline>
    <contour>
      <point x="143" y="766" type="line"/>
      <point x="163" y="766" type="line"/>
      <point x="163" y="812" type="line"/>
      <point x="234" y="826"/>
      <point x="278" y="859"/>
      <point x="278" y="902" type="curve" smooth="yes"/>
      <point x="278" y="955"/>
      <point x="212" y="974"/>
      <point x="158" y="974" type="curve" smooth="yes"/>
      <point x="117" y="974"/>
      <point x="93" y="965"/>
      <point x="74" y="954" type="curve" smooth="yes"/>
      <point x="52" y="941"/>
      <point x="35" y="920"/>
      <point x="35" y="895" type="curve" smooth="yes"/>
      <point x="35" y="870"/>
      <point x="53" y="853"/>
      <point x="78" y="853" type="curve" smooth="yes"/>
      <point x="103" y="853"/>
      <point x="123" y="869"/>
      <point x="123" y="897" type="curve" smooth="yes"/>
      <point x="123" y="920"/>
      <point x="110" y="934"/>
      <point x="91" y="938" type="curve"/>
      <point x="102" y="951"/>
      <point x="123" y="954"/>
      <point x="139" y="954" type="curve" smooth="yes"/>
      <point x="178" y="954"/>
      <point x="209" y="935"/>
      <point x="209" y="896" type="curve" smooth="yes"/>
      <point x="209" y="865"/>
      <point x="189" y="839"/>
      <point x="143" y="821" type="curve"/>
    </contour>
    <contour>
      <point x="143" y="708" type="move" name="_right"/>
    </contour>
    <contour>
      <point x="153" y="708" type="move" name="_top"/>
    </contour>
    <contour>
      <point x="152" y="974" type="move" name="top"/>
    </contour>
  </outline>
</glyph>
<glyph name="j.smcp" format="1">
  <advance width="322"/>
  <outline>
    <contour>
      <point x="-20" y="-188" type="line"/>
      <point x="96" y="-188"/>
      <point x="170" y="-118"/>
      <point x="193" y="-25" type="curve" smooth="yes"/>
      <point x="209" y="42"/>
      <point x="210" y="153"/>
      <point x="210" y="236" type="curve" smooth="yes"/>
      <point x="210" y="502" type="line" smooth="yes"/>
      <point x="210" y="575"/>
      <point x="223" y="585"/>
      <point x="291" y="588" type="curve"/>
      <point x="291" y="608" type="line"/>
      <point x="260" y="606"/>
      <point x="211" y="605"/>
      <point x="162" y="605" type="curve" smooth="yes"/>
      <point x="113" y="605"/>
      <point x="64" y="606"/>
      <point x="36" y="608" type="curve"/>
      <point x="36" y="588" type="line"/>
      <point x="104" y="585"/>
      <point x="117" y="575"/>
      <point x="117" y="502" type="curve" smooth="yes"/>
      <point x="117" y="52" type="line" smooth="yes"/>
      <point x="117" y="-111"/>
      <point x="70" y="-167"/>
      <point x="-20" y="-169" type="curve"/>
    </contour>
    <contour>
      <point x="162" y="608" type="move" name="top"/>
    </contour>
  </outline>
</glyph>
<glyph name="ohorn.smcp" format="1">
  <advance width="721"/>
  <outline>
    <contour>
      <point x="440" y="604" type="curve"/>
      <point x="472" y="582" type="line"/>
      <point x="538" y="583"/>
      <point x="589" y="597"/>
      <point x="628" y="620" type="curve" smooth="yes"/>
      <point x="667" y="643"/>
      <point x="693" y="675"/>
      <point x="693" y="709" type="curve" smooth="yes"/>
      <point x="693" y="738"/>
      <point x="674" y="764"/>
      <point x="637" y="764" type="curve" smooth="yes"/>
      <point x="598" y="764"/>
      <point x="579" y="735"/>
      <point x="579" y="705" type="curve" smooth="yes"/>
      <point x="579" y="674"/>
      <point x="599" y="650"/>
      <point x="620" y="634" type="curve"/>
      <point x="621" y="641" type="line"/>
      <point x="578" y="612"/>
      <point x="528" y="599"/>
    </contour>
    <component base="o.smcp"/>
  </outline>
</glyph>
<glyph name="s_p" format="1">
  <advance width="1028"/>
  <outline>
    <contour>
      <point x="635" y="622" type="line"/>
      <point x="609" y="613"/>
      <point x="579" y="609"/>
      <point x="545" y="608" type="curve"/>
      <point x="545" y="-88" type="line" smooth="yes"/>
      <point x="545" y="-144"/>
      <point x="524" y="-160"/>
      <point x="469" y="-160" type="curve"/>
      <point x="469" y="-181" type="line"/>
      <point x="492" y="-180"/>
      <point x="541" y="-177"/>
      <point x="587" y="-177" type="curve" smooth="yes"/>
      <point x="649" y="-177"/>
      <point x="710" y="-180"/>
      <point x="741" y="-181" type="curve"/>
      <point x="741" y="-160" type="line"/>
      <point x="675" y="-160"/>
      <point x="635" y="-143"/>
      <point x="635" y="-78" type="curve" smooth="yes"/>
    </contour>
    <contour>
      <point x="219" y="529" type="curve" smooth="yes"/>
      <point x="138" y="529"/>
      <point x="60" y="489"/>
      <point x="60" y="399" type="curve" smooth="yes"/>
      <point x="60" y="317"/>
      <point x="125" y="278"/>
      <point x="198" y="232" type="curve" smooth="yes"/>
      <point x="266" y="189"/>
      <point x="311" y="160"/>
      <point x="311" y="97" type="curve" smooth="yes"/>
      <point x="311" y="39"/>
      <point x="273" y="6"/>
      <point x="215" y="6" type="curve" smooth="yes"/>
      <point x="122" y="6"/>
      <point x="94" y="91"/>
      <point x="83" y="193" type="curve"/>
      <point x="60" y="193" type="line"/>
      <point x="60" y="92"/>
      <point x="59" y="36"/>
      <point x="56" y="-7" type="curve"/>
      <point x="79" y="-7" type="line"/>
      <point x="84" y="25"/>
      <point x="95" y="38"/>
      <point x="109" y="27" type="curve" smooth="yes"/>
      <point x="123" y="16"/>
      <point x="135" y="7"/>
      <point x="150" y="0" type="curve" smooth="yes"/>
      <point x="170" y="-9"/>
      <point x="199" y="-14"/>
      <point x="229" y="-14" type="curve" smooth="yes"/>
      <point x="320" y="-14"/>
      <point x="400" y="34"/>
      <point x="400" y="126" type="curve" smooth="yes"/>
      <point x="400" y="209"/>
      <point x="335" y="255"/>
      <point x="263" y="301" type="curve" smooth="yes"/>
      <point x="193" y="346"/>
      <point x="135" y="374"/>
      <point x="135" y="433" type="curve" smooth="yes"/>
      <point x="135" y="483"/>
      <point x="176" y="510"/>
      <point x="231" y="510" type="curve" smooth="yes"/>
      <point x="278" y="510"/>
      <point x="320" y="491"/>
      <point x="339" y="468" type="curve"/>
      <point x="316" y="441"/>
      <point x="305" y="411"/>
      <point x="305" y="389" type="curve" smooth="yes"/>
      <point x="305" y="363"/>
      <point x="320" y="339"/>
      <point x="350" y="339" type="curve" smooth="yes"/>
      <point x="376" y="339"/>
      <point x="396" y="358"/>
      <point x="396" y="393" type="curve" smooth="yes"/>
      <point x="396" y="423"/>
      <point x="382" y="461"/>
      <point x="356" y="480" type="curve"/>
      <point x="324" y="513"/>
      <point x="271" y="529"/>
    </contour>
    <contour>
      <point x="431" y="782" type="curve" smooth="yes"/>
      <point x="361" y="782"/>
      <point x="297" y="745"/>
      <point x="297" y="663" type="curve" smooth="yes"/>
      <point x="297" y="583"/>
      <point x="364" y="554"/>
      <point x="343" y="463" type="curve"/>
      <point x="360" y="470" type="line"/>
      <point x="383" y="545"/>
      <point x="320" y="589"/>
      <point x="320" y="664" type="curve" smooth="yes"/>
      <point x="320" y="737"/>
      <point x="372" y="764"/>
      <point x="429" y="764" type="curve" smooth="yes"/>
      <point x="504" y="764"/>
      <point x="545" y="715"/>
      <point x="545" y="631" type="curve" smooth="yes"/>
      <point x="545" y="551" type="line"/>
      <point x="545" y="551"/>
      <point x="562" y="556"/>
      <point x="562" y="556" type="curve"/>
      <point x="562" y="634" type="line" smooth="yes"/>
      <point x="562" y="741"/>
      <point x="504" y="782"/>
    </contour>
    <contour>
      <point x="795" y="529" type="curve" smooth="yes"/>
      <point x="703" y="529"/>
      <point x="631" y="463"/>
      <point x="616" y="350" type="curve"/>
      <point x="628" y="336" type="line"/>
      <point x="642" y="445"/>
      <point x="702" y="499"/>
      <point x="768" y="499" type="curve" smooth="yes"/>
      <point x="844" y="499"/>
      <point x="884" y="426"/>
      <point x="884" y="267" type="curve" smooth="yes"/>
      <point x="884" y="125"/>
      <point x="852" y="9"/>
      <point x="741" y="9" type="curve" smooth="yes"/>
      <point x="687" y="9"/>
      <point x="652" y="37"/>
      <point x="634" y="75" type="curve"/>
      <point x="624" y="61" type="line"/>
      <point x="640" y="19"/>
      <point x="689" y="-14"/>
      <point x="752" y="-14" type="curve" smooth="yes"/>
      <point x="915" y="-14"/>
      <point x="981" y="136"/>
      <point x="981" y="281" type="curve" smooth="yes"/>
      <point x="981" y="442"/>
      <point x="900" y="529"/>
    </contour>
    <contour>
      <point x="515" y="0" type="move" name="bottom"/>
    </contour>
    <contour>
      <point x="515" y="514" type="move" name="top"/>
    </contour>
  </outline>
</glyph>
<glyph name="s_t" format="1">
  <advance width="804"/>
  <outline>
    <contour>
      <point x="635" y="681" type="line"/>
      <point x="610" y="672"/>
      <point x="578" y="668"/>
      <point x="545" y="667" type="curve"/>
      <point x="545" y="514" type="line"/>
      <point x="449" y="514" type="line"/>
      <point x="449" y="494" type="line"/>
      <point x="545" y="494" type="line"/>
      <point x="545" y="159" type="line" smooth="yes"/>
      <point x="545" y="88"/>
      <point x="554" y="48"/>
      <point x="583" y="18" type="curve" smooth="yes"/>
      <point x="605" y="-4"/>
      <point x="632" y="-14"/>
      <point x="679" y="-14" type="curve" smooth="yes"/>
      <point x="760" y="-14"/>
      <point x="798" y="44"/>
      <point x="814" y="122" type="curve"/>
      <point x="794" y="128" type="line"/>
      <point x="770" y="50"/>
      <point x="739" y="22"/>
      <point x="699" y="22" type="curve" smooth="yes"/>
      <point x="661" y="22"/>
      <point x="635" y="45"/>
      <point x="635" y="111" type="curve" smooth="yes"/>
      <point x="635" y="494" type="line"/>
      <point x="793" y="494" type="line"/>
      <point x="793" y="514" type="line"/>
      <point x="635" y="514" type="line"/>
    </contour>
    <contour>
      <point x="219" y="529" type="curve" smooth="yes"/>
      <point x="138" y="529"/>
      <point x="60" y="489"/>
      <point x="60" y="399" type="curve" smooth="yes"/>
      <point x="60" y="317"/>
      <point x="125" y="278"/>
      <point x="198" y="232" type="curve" smooth="yes"/>
      <point x="266" y="189"/>
      <point x="311" y="160"/>
      <point x="311" y="97" type="curve" smooth="yes"/>
      <point x="311" y="39"/>
      <point x="273" y="6"/>
      <point x="215" y="6" type="curve" smooth="yes"/>
      <point x="122" y="6"/>
      <point x="94" y="91"/>
      <point x="83" y="193" type="curve"/>
      <point x="60" y="193" type="line"/>
      <point x="60" y="92"/>
      <point x="59" y="36"/>
      <point x="56" y="-7" type="curve"/>
      <point x="79" y="-7" type="line"/>
      <point x="84" y="25"/>
      <point x="95" y="38"/>
      <point x="109" y="27" type="curve" smooth="yes"/>
      <point x="123" y="16"/>
      <point x="135" y="7"/>
      <point x="150" y="0" type="curve" smooth="yes"/>
      <point x="170" y="-9"/>
      <point x="199" y="-14"/>
      <point x="229" y="-14" type="curve" smooth="yes"/>
      <point x="320" y="-14"/>
      <point x="400" y="34"/>
      <point x="400" y="126" type="curve" smooth="yes"/>
      <point x="400" y="209"/>
      <point x="335" y="255"/>
      <point x="263" y="301" type="curve" smooth="yes"/>
      <point x="193" y="346"/>
      <point x="135" y="374"/>
      <point x="135" y="433" type="curve" smooth="yes"/>
      <point x="135" y="483"/>
      <point x="176" y="510"/>
      <point x="231" y="510" type="curve" smooth="yes"/>
      <point x="278" y="510"/>
      <point x="320" y="491"/>
      <point x="339" y="468" type="curve"/>
      <point x="316" y="441"/>
      <point x="305" y="411"/>
      <point x="305" y="389" type="curve" smooth="yes"/>
      <point x="305" y="363"/>
      <point x="320" y="339"/>
      <point x="350" y="339" type="curve" smooth="yes"/>
      <point x="376" y="339"/>
      <point x="396" y="358"/>
      <point x="396" y="393" type="curve" smooth="yes"/>
      <point x="396" y="423"/>
      <point x="382" y="461"/>
      <point x="356" y="480" type="curve"/>
      <point x="324" y="513"/>
      <point x="271" y="529"/>
    </contour>
    <contour>
      <point x="431" y="782" type="curve" smooth="yes"/>
      <point x="361" y="782"/>
      <point x="297" y="745"/>
      <point x="297" y="663" type="curve" smooth="yes"/>
      <point x="297" y="583"/>
      <point x="364" y="554"/>
      <point x="343" y="463" type="curve"/>
      <point x="360" y="470" type="line"/>
      <point x="383" y="545"/>
      <point x="320" y="589"/>
      <point x="320" y="664" type="curve" smooth="yes"/>
      <point x="320" y="737"/>
      <point x="372" y="764"/>
      <point x="429" y="764" type="curve" smooth="yes"/>
      <point x="504" y="764"/>
      <point x="545" y="715"/>
      <point x="545" y="631" type="curve"/>
      <point x="562" y="634" type="line"/>
      <point x="562" y="741"/>
      <point x="504" y="782"/>
    </contour>
  </outline>
</glyph>
<glyph name="strokelongoverlaycomb.case" format="1">
  <advance width="757"/>
  <outline>
    <contour>
      <point x="715" y="533" type="line"/>
      <point x="42" y="533" type="line"/>
      <point x="42" y="513" type="line"/>
      <point x="715" y="513" type="line"/>
    </contour>
    <contour>
      <point x="379" y="514" type="move" name="_center"/>
    </contour>
  </outline>
</glyph>
<glyph name="strokelongoverlaycomb.smcp" format="1">
  <advance width="737"/>
  <outline>
    <contour>
      <point x="715" y="463" type="line"/>
      <point x="22" y="463" type="line"/>
      <point x="22" y="443" type="line"/>
      <point x="715" y="443" type="line"/>
    </contour>
    <contour>
      <point x="369" y="453" type="move" name="_center"/>
    </contour>
  </outline>
</glyph>
<glyph name="uhorn.smcp" format="1">
  <advance width="658"/>
  <outline>
    <contour>
      <point x="338" y="-14" type="curve" smooth="yes"/>
      <point x="416" y="-14"/>
      <point x="480" y="19"/>
      <point x="511" y="69" type="curve" smooth="yes"/>
      <point x="541" y="118"/>
      <point x="552" y="182"/>
      <point x="552" y="271" type="curve" smooth="yes"/>
      <point x="552" y="596" type="line"/>
      <point x="542" y="586" type="line"/>
      <point x="573" y="587"/>
      <point x="605" y="596"/>
      <point x="645" y="620" type="curve" smooth="yes"/>
      <point x="682" y="642"/>
      <point x="710" y="673"/>
      <point x="710" y="708" type="curve" smooth="yes"/>
      <point x="710" y="738"/>
      <point x="691" y="764"/>
      <point x="654" y="764" type="curve" smooth="yes"/>
      <point x="615" y="764"/>
      <point x="596" y="735"/>
      <point x="596" y="704" type="curve" smooth="yes"/>
      <point x="596" y="674"/>
      <point x="617" y="649"/>
      <point x="637" y="634" type="curve"/>
      <point x="638" y="639" type="line"/>
      <point x="595" y="605"/>
      <point x="551" y="605"/>
      <point x="515" y="605" type="curve" smooth="yes"/>
      <point x="489" y="605"/>
      <point x="460" y="606"/>
      <point x="441" y="608" type="curve"/>
      <point x="436" y="588" type="line"/>
      <point x="468" y="585"/>
      <point x="501" y="584"/>
      <point x="533" y="586" type="curve"/>
      <point x="529" y="597" type="line"/>
      <point x="529" y="260" type="line" smooth="yes"/>
      <point x="529" y="123"/>
      <point x="490" y="21"/>
      <point x="347" y="21" type="curve" smooth="yes"/>
      <point x="214" y="21"/>
      <point x="199" y="124"/>
      <point x="199" y="251" type="curve" smooth="yes"/>
      <point x="199" y="502" type="line" smooth="yes"/>
      <point x="199" y="575"/>
      <point x="212" y="585"/>
      <point x="280" y="588" type="curve"/>
      <point x="280" y="608" type="line"/>
      <point x="249" y="606"/>
      <point x="199" y="605"/>
      <point x="153" y="605" type="curve" smooth="yes"/>
      <point x="101" y="605"/>
      <point x="53" y="606"/>
      <point x="25" y="608" type="curve"/>
      <point x="25" y="588" type="line"/>
      <point x="93" y="585"/>
      <point x="106" y="575"/>
      <point x="106" y="502" type="curve" smooth="yes"/>
      <point x="106" y="268" type="line" smooth="yes"/>
      <point x="106" y="138"/>
      <point x="121" y="83"/>
      <point x="180" y="30" type="curve" smooth="yes"/>
      <point x="221" y="-3"/>
      <point x="278" y="-14"/>
    </contour>
    <contour>
      <point x="342" y="0" type="move" name="bottom"/>
    </contour>
    <contour>
      <point x="428" y="0" type="move" name="ogonek"/>
    </contour>
    <contour>
      <point x="334" y="608" type="move" name="top"/>
    </contour>
  </outline>
</glyph>
<glyph name="uni01E5.smcp" format="1">
  <advance width="661"/>
  <outline>
    <contour>
      <point x="352" y="622" type="curve" smooth="yes"/>
      <point x="178" y="622"/>
      <point x="54" y="495"/>
      <point x="54" y="292" type="curve" smooth="yes"/>
      <point x="54" y="99"/>
      <point x="167" y="-14"/>
      <point x="368" y="-14" type="curve" smooth="yes"/>
      <point x="423" y="-14"/>
      <point x="473" y="-1"/>
      <point x="499" y="8" type="curve" smooth="yes"/>
      <point x="510" y="12"/>
      <point x="534" y="24"/>
      <point x="543" y="24" type="curve" smooth="yes"/>
      <point x="553" y="24"/>
      <point x="557" y="15"/>
      <point x="558" y="0" type="curve"/>
      <point x="578" y="0" type="line"/>
      <point x="578" y="178" type="line" smooth="yes"/>
      <point x="578" y="252"/>
      <point x="586" y="261"/>
      <point x="629" y="264" type="curve"/>
      <point x="629" y="284" type="line"/>
      <point x="605" y="282"/>
      <point x="569" y="281"/>
      <point x="525" y="281" type="curve" smooth="yes"/>
      <point x="480" y="281"/>
      <point x="420" y="282"/>
      <point x="384" y="284" type="curve"/>
      <point x="384" y="264" type="line"/>
      <point x="468" y="261"/>
      <point x="485" y="249"/>
      <point x="485" y="168" type="curve" smooth="yes"/>
      <point x="485" y="52" type="line" smooth="yes"/>
      <point x="485" y="31"/>
      <point x="478" y="20"/>
      <point x="454" y="14" type="curve" smooth="yes"/>
      <point x="433" y="9"/>
      <point x="408" y="6"/>
      <point x="377" y="6" type="curve" smooth="yes"/>
      <point x="232" y="6"/>
      <point x="154" y="95"/>
      <point x="154" y="303" type="curve" smooth="yes"/>
      <point x="154" y="488"/>
      <point x="229" y="604"/>
      <point x="350" y="604" type="curve" smooth="yes"/>
      <point x="424" y="604"/>
      <point x="468" y="571"/>
      <point x="507" y="526" type="curve" smooth="yes"/>
      <point x="535" y="494"/>
      <point x="548" y="452"/>
      <point x="557" y="408" type="curve"/>
      <point x="580" y="408" type="line"/>
      <point x="580" y="509"/>
      <point x="581" y="565"/>
      <point x="584" y="608" type="curve"/>
      <point x="561" y="608" type="line"/>
      <point x="555" y="547"/>
      <point x="542" y="536"/>
      <point x="516" y="557" type="curve" smooth="yes"/>
      <point x="475" y="591"/>
      <point x="435" y="622"/>
    </contour>
    <contour>
      <point x="368" y="138" type="line"/>
      <point x="663" y="138" type="line"/>
      <point x="663" y="158" type="line"/>
      <point x="368" y="158" type="line"/>
    </contour>
    <contour>
      <point x="375" y="0" type="move" name="bottom"/>
    </contour>
    <contour>
      <point x="357" y="608" type="move" name="top"/>
    </contour>
  </outline>
</glyph>
<glyph name="uni0304.case" format="1">
  <advance width="402"/>
  <outline>
    <contour>
      <point x="377" y="844" type="line"/>
      <point x="25" y="844" type="line"/>
      <point x="25" y="819" type="line"/>
      <point x="377" y="819" type="line"/>
    </contour>
    <contour>
      <point x="202" y="819" type="move" name="_centre"/>
    </contour>
    <contour>
      <point x="201" y="708" type="move" name="_top"/>
    </contour>
    <contour>
      <point x="202" y="928" type="move" name="top"/>
    </contour>
  </outline>
</glyph>
<glyph name="uni0338.smcp" format="1">
  <advance width="721"/>
  <outline>
    <contour>
      <point x="516" y="555" type="line"/>
      <point x="196" y="70" type="line"/>
      <point x="216" y="54" type="line"/>
      <point x="533" y="538" type="line"/>
    </contour>
    <contour>
      <point x="191" y="70" type="line"/>
      <point x="104" y="-58" type="line"/>
      <point x="126" y="-72" type="line"/>
      <point x="211" y="54" type="line"/>
    </contour>
    <contour>
      <point x="607" y="680" type="line"/>
      <point x="521" y="555" type="line"/>
      <point x="538" y="538" type="line"/>
      <point x="626" y="667" type="line"/>
    </contour>
    <contour>
      <point x="365" y="304" type="move" name="_center"/>
    </contour>
  </outline>
</glyph>
<glyph name="uni046B.smcp" format="1">
  <advance width="984"/>
  <outline>
    <contour>
      <point x="477" y="258" type="line"/>
      <point x="494" y="258" type="line"/>
      <point x="696" y="519" type="line" smooth="yes"/>
      <point x="728" y="560"/>
      <point x="747" y="581"/>
      <point x="790" y="587" type="curve"/>
      <point x="790" y="608" type="line"/>
      <point x="695" y="604"/>
      <point x="564" y="603"/>
      <point x="499" y="603" type="curve" smooth="yes"/>
      <point x="403" y="603"/>
      <point x="312" y="606"/>
      <point x="165" y="608" type="curve"/>
      <point x="165" y="587" type="line"/>
      <point x="201" y="584"/>
      <point x="218" y="573"/>
      <point x="253" y="531" type="curve" smooth="yes"/>
    </contour>
    <contour>
      <point x="123" y="-14" type="curve" smooth="yes"/>
      <point x="170" y="-14"/>
      <point x="206" y="0"/>
      <point x="230" y="94" type="curve" smooth="yes"/>
      <point x="257" y="198" type="line" smooth="yes"/>
      <point x="274" y="264"/>
      <point x="292" y="307"/>
      <point x="394" y="307" type="curve" smooth="yes"/>
      <point x="479" y="307" type="line"/>
      <point x="479" y="326" type="line"/>
      <point x="383" y="327"/>
      <point x="356" y="326"/>
      <point x="319" y="321" type="curve" smooth="yes"/>
      <point x="235" y="308"/>
      <point x="188" y="275"/>
      <point x="172" y="211" type="curve" smooth="yes"/>
      <point x="143" y="105" type="line" smooth="yes"/>
      <point x="128" y="48"/>
      <point x="120" y="22"/>
      <point x="91" y="23" type="curve" smooth="yes"/>
      <point x="68" y="24"/>
      <point x="56" y="38"/>
      <point x="38" y="61" type="curve"/>
      <point x="23" y="50" type="line"/>
      <point x="47" y="12"/>
      <point x="72" y="-14"/>
    </contour>
    <contour>
      <point x="365" y="0" type="line"/>
      <point x="393" y="2"/>
      <point x="441" y="3"/>
      <point x="493" y="3" type="curve" smooth="yes"/>
      <point x="539" y="3"/>
      <point x="589" y="2"/>
      <point x="620" y="0" type="curve"/>
      <point x="620" y="20" type="line"/>
      <point x="552" y="23"/>
      <point x="539" y="33"/>
      <point x="539" y="106" type="curve" smooth="yes"/>
      <point x="539" y="312" type="line"/>
      <point x="446" y="312" type="line"/>
      <point x="446" y="106" type="line" smooth="yes"/>
      <point x="446" y="33"/>
      <point x="433" y="23"/>
      <point x="365" y="20" type="curve"/>
    </contour>
    <contour>
      <point x="855" y="-14" type="curve" smooth="yes"/>
      <point x="911" y="-14"/>
      <point x="936" y="12"/>
      <point x="962" y="50" type="curve"/>
      <point x="947" y="61" type="line"/>
      <point x="929" y="38"/>
      <point x="917" y="24"/>
      <point x="894" y="23" type="curve" smooth="yes"/>
      <point x="861" y="22"/>
      <point x="856" y="55"/>
      <point x="843" y="105" type="curve" smooth="yes"/>
      <point x="815" y="211" type="line" smooth="yes"/>
      <point x="797" y="275"/>
      <point x="749" y="308"/>
      <point x="659" y="321" type="curve" smooth="yes"/>
      <point x="622" y="326"/>
      <point x="595" y="327"/>
      <point x="499" y="326" type="curve"/>
      <point x="499" y="307" type="line"/>
      <point x="584" y="307" type="line" smooth="yes"/>
      <point x="686" y="307"/>
      <point x="702" y="263"/>
      <point x="721" y="198" type="curve" smooth="yes"/>
      <point x="748" y="94" type="line" smooth="yes"/>
      <point x="772" y="0"/>
      <point x="808" y="-14"/>
    </contour>
    <contour>
      <point x="522" y="323" type="line"/>
      <point x="533" y="326" type="line"/>
      <point x="383" y="510" type="line" smooth="yes"/>
      <point x="344" y="558"/>
      <point x="351" y="587"/>
      <point x="512" y="587" type="curve" smooth="yes"/>
      <point x="667" y="587"/>
      <point x="696" y="547"/>
      <point x="641" y="476" type="curve" smooth="yes"/>
    </contour>
  </outline>
</glyph>
<glyph name="uni04B1.smcp" format="1">
  <advance width="573"/>
  <outline>
    <contour>
      <point x="512" y="217" type="line"/>
      <point x="79" y="217" type="line"/>
      <point x="79" y="197" type="line"/>
      <point x="512" y="197" type="line"/>
    </contour>
    <component base="uni04AF.smcp"/>
  </outline>
</glyph>
<glyph name="uni04CA.smcp" format="1">
  <advance width="737"/>
  <outline>
    <contour>
      <point x="605" y="-150" type="curve"/>
      <point x="625" y="-160" type="line"/>
      <point x="642" y="-124"/>
      <point x="687" y="-49"/>
      <point x="721" y="0" type="curve"/>
      <point x="721" y="20" type="line"/>
      <point x="689" y="20" type="line" smooth="yes"/>
      <point x="628" y="20"/>
      <point x="614" y="33"/>
      <point x="614" y="106" type="curve"/>
      <point x="545" y="3" type="line"/>
      <point x="616" y="3"/>
      <point x="672" y="-24"/>
    </contour>
    <component base="uni043D.smcp"/>
  </outline>
</glyph>
